<?xml version="1.0" encoding="UTF-8" standalone="no"?><!DOCTYPE svg PUBLIC "-//W3C//DTD SVG 1.1//EN" "http://www.w3.org/Graphics/SVG/1.1/DTD/svg11.dtd"><svg width="100%" height="100%" viewBox="0 0 1659 679" version="1.1" xmlns="http://www.w3.org/2000/svg" xmlns:xlink="http://www.w3.org/1999/xlink" xml:space="preserve" xmlns:serif="http://www.serif.com/" style="fill-rule:evenodd;clip-rule:evenodd;stroke-linejoin:round;stroke-miterlimit:2;"><rect id="Artboard1" x="0" y="0" width="1658.32" height="678.595" style="fill:none;"/><path id="_7MvMgRWMfzrsDGih34xor" d="M1519.92,477.475c-0.164,2.273 -0.335,4.545 -0.492,6.82c-3.039,43.325 -6.027,86.657 -9.183,129.973c-0.315,4.309 0.882,6.104 5.3,6.03c4.276,-0.068 8.619,0.01 12.824,0.688c5.362,0.864 7.404,-0.828 8.341,-6.365c5.334,-31.497 10.303,-63.087 16.932,-94.319c7.759,-36.568 17.093,-72.798 25.735,-109.176c0.486,-2.042 0.877,-4.105 1.493,-7.013c-2.863,-0.016 -5.11,-0.189 -7.328,-0.013c-68.25,5.433 -136.588,5.714 -204.971,3.594c-10.517,-0.325 -9.533,-1.48 -10.95,9.268c-2.112,16.047 -2.125,15.921 14.005,17.843c40.809,4.865 81.599,9.849 122.399,14.801c1.082,0.132 2.142,0.475 3.876,0.875c-1.133,1.309 -1.75,2.24 -2.567,2.933c-34.668,29.367 -70.436,57.153 -110.628,78.793c-84.097,45.282 -173.264,64.532 -268.427,51.767c-77.001,-10.328 -145.891,-40.49 -207.651,-87.321c-33.538,-25.429 -62.887,-55.114 -89.243,-87.847c-5.433,-6.749 -5.517,-6.688 -12.218,-1.205c-3.768,3.082 -7.419,6.32 -11.303,9.251c-4.042,3.053 -3.884,5.715 -0.725,9.611c22.75,28.027 47.204,54.371 74.745,77.793c52.01,44.233 110.282,77.111 175.909,96.331c105.796,30.987 209.449,23.891 310.82,-18.79c40.558,-17.074 78.315,-39.119 113.201,-65.956c14.659,-11.276 28.93,-23.059 43.372,-34.616c1.804,-1.444 3.566,-2.939 5.346,-4.408c0.464,0.221 0.927,0.441 1.387,0.659l0.001,-0.001Z" style="fill:#ffc91a;fill-rule:nonzero;"/><path id="_k9PuFdTnD4UnJoYOtZN1a" d="M185.908,131.183c23.461,0 42.405,7.039 56.834,21.115c14.428,14.076 21.642,34.956 21.642,62.64l0,108.388l-54.898,0l-0,-99.942c-0,-15.015 -3.284,-26.217 -9.853,-33.608c-6.569,-7.39 -16.071,-11.085 -28.505,-11.085c-13.842,0 -24.869,4.282 -33.08,12.845c-8.211,8.563 -12.317,21.291 -12.317,38.182l0,93.608l-54.898,0l0,-261.117l54.898,-0l0,91.497c7.273,-7.273 16.071,-12.845 26.394,-16.716c10.322,-3.871 21.583,-5.807 33.783,-5.807Zm220.296,194.959c-19.942,-0 -37.831,-4.165 -53.666,-12.493c-15.836,-8.329 -28.212,-19.883 -37.127,-34.663c-8.915,-14.781 -13.373,-31.555 -13.373,-50.323c0,-18.769 4.458,-35.543 13.373,-50.324c8.915,-14.78 21.291,-26.334 37.127,-34.663c15.835,-8.328 33.724,-12.493 53.666,-12.493c19.941,0 37.772,4.165 53.49,12.493c15.719,8.329 28.036,19.883 36.951,34.663c8.915,14.781 13.372,31.555 13.372,50.324c0,18.768 -4.457,35.542 -13.372,50.323c-8.915,14.78 -21.232,26.334 -36.951,34.663c-15.718,8.328 -33.549,12.493 -53.49,12.493Zm-0,-45.045c14.076,0 25.631,-4.751 34.663,-14.252c9.032,-9.502 13.549,-22.229 13.549,-38.182c-0,-15.954 -4.517,-28.681 -13.549,-38.183c-9.032,-9.501 -20.587,-14.252 -34.663,-14.252c-14.077,-0 -25.69,4.751 -34.839,14.252c-9.15,9.502 -13.725,22.229 -13.725,38.183c0,15.953 4.575,28.68 13.725,38.182c9.149,9.501 20.762,14.252 34.839,14.252Zm140.412,42.229l0,-261.117l54.898,-0l0,261.117l-54.898,0Zm105.925,0l0,-189.327l54.898,-0l0,189.327l-54.898,0Zm27.449,-215.721c-10.088,0 -18.299,-2.932 -24.634,-8.797c-6.334,-5.866 -9.501,-13.138 -9.501,-21.819c-0,-8.68 3.167,-15.953 9.501,-21.818c6.335,-5.865 14.546,-8.798 24.634,-8.798c10.088,0 18.299,2.815 24.634,8.446c6.334,5.63 9.501,12.669 9.501,21.114c0,9.15 -3.167,16.716 -9.501,22.699c-6.335,5.982 -14.546,8.973 -24.634,8.973Zm82.347,215.721l0,-246.337l111.908,0c26.745,0 50.381,5.103 70.909,15.308c20.529,10.206 36.482,24.575 47.86,43.109c11.379,18.534 17.068,40.118 17.068,64.752c-0,24.634 -5.689,46.217 -17.068,64.751c-11.378,18.534 -27.331,32.904 -47.86,43.109c-20.528,10.206 -44.164,15.308 -70.909,15.308l-111.908,0Zm57.01,-46.804l52.082,0c24.634,0 44.282,-6.862 58.945,-20.586c14.663,-13.725 21.995,-32.317 21.995,-55.778c-0,-23.461 -7.332,-42.053 -21.995,-55.778c-14.663,-13.724 -34.311,-20.587 -58.945,-20.587l-52.082,0l-0,152.729Zm306.161,-145.339c29.326,0 51.849,6.98 67.567,20.939c15.719,13.959 23.578,35.015 23.578,63.168l0,108.036l-51.379,0l0,-23.578c-10.322,17.596 -29.56,26.394 -57.713,26.394c-14.546,-0 -27.156,-2.464 -37.83,-7.39c-10.675,-4.927 -18.827,-11.731 -24.458,-20.411c-5.631,-8.681 -8.446,-18.534 -8.446,-29.561c0,-17.595 6.628,-31.437 19.883,-41.525c13.255,-10.088 33.725,-15.132 61.408,-15.132l43.637,-0c0,-11.965 -3.636,-21.173 -10.909,-27.625c-7.273,-6.452 -18.182,-9.678 -32.728,-9.678c-10.088,0 -20,1.584 -29.736,4.751c-9.736,3.167 -18.006,7.449 -24.81,12.845l-19.707,-38.358c10.323,-7.273 22.699,-12.904 37.127,-16.892c14.428,-3.988 29.267,-5.983 44.516,-5.983Zm-4.222,158.008c9.384,0 17.712,-2.17 24.985,-6.51c7.273,-4.34 12.434,-10.733 15.484,-19.179l0,-19.355l-37.654,-0c-22.522,-0 -33.784,7.39 -33.784,22.17c0,7.038 2.757,12.61 8.27,16.716c5.514,4.105 13.08,6.158 22.699,6.158Zm201.292,-8.094l99.591,0l-0,42.229l-168.917,0l-0,-33.079l96.423,-114.019l-93.96,-0l0,-42.229l163.287,-0l-0,33.079l-96.424,114.019Zm317.775,-51.731c0,0.704 -0.352,5.631 -1.055,14.781l-143.228,-0c2.581,11.73 8.68,20.997 18.299,27.801c9.619,6.803 21.584,10.205 35.895,10.205c9.854,-0 18.593,-1.466 26.218,-4.399c7.624,-2.933 14.721,-7.566 21.29,-13.9l29.209,31.672c-17.83,20.41 -43.872,30.616 -78.124,30.616c-21.35,-0 -40.236,-4.165 -56.658,-12.493c-16.422,-8.329 -29.091,-19.883 -38.006,-34.663c-8.915,-14.781 -13.373,-31.555 -13.373,-50.323c0,-18.534 4.399,-35.25 13.197,-50.148c8.798,-14.897 20.88,-26.51 36.247,-34.839c15.366,-8.328 32.551,-12.493 51.554,-12.493c18.534,0 35.309,3.989 50.324,11.965c15.014,7.977 26.803,19.414 35.367,34.312c8.563,14.897 12.844,32.199 12.844,51.906Zm-98.183,-56.657c-12.434,-0 -22.874,3.519 -31.32,10.557c-8.446,7.038 -13.607,16.657 -15.484,28.857l93.256,-0c-1.876,-11.965 -7.038,-21.525 -15.484,-28.681c-8.445,-7.155 -18.768,-10.733 -30.968,-10.733Z" style="fill:#0202b0;fill-rule:nonzero;"/></svg>